<svg xmlns="http://www.w3.org/2000/svg" version="1.1" xmlns:xlink="http://www.w3.org/1999/xlink" xmlns:svgjs="http://svgjs.dev/svgjs" width="1500" height="214" viewBox="0 0 1500 214"><g transform="matrix(1,0,0,1,-1.1359753246753144,-0.398452436363641)"><svg viewBox="0 0 385 55" data-background-color="#000000" preserveAspectRatio="xMidYMid meet" height="214" width="1500" xmlns="http://www.w3.org/2000/svg" xmlns:xlink="http://www.w3.org/1999/xlink"><g id="tight-bounds" transform="matrix(1,0,0,1,0.29156699999998636,0.102406000000002)"><svg viewBox="0 0 384.416866 54.79518800000001" height="54.79518800000001" width="384.416866"><g><svg viewBox="0 0 384.416866 54.79518800000001" height="54.79518800000001" width="384.416866"><g><svg viewBox="0 0 384.416866 54.79518800000001" height="54.79518800000001" width="384.416866"><g id="textblocktransform"><svg viewBox="0 0 384.416866 54.79518800000001" height="54.79518800000001" width="384.416866" id="textblock"><g><svg viewBox="0 0 384.416866 54.79518800000001" height="54.79518800000001" width="384.416866"><g><svg><g></g><g></g></svg></g><g><svg><g></g><g><svg></svg></g></svg></g><g id="text-0"><svg viewBox="0 0 384.416866 54.79518800000001" height="54.79518800000001" width="384.416866"><g><svg xmlns="http://www.w3.org/2000/svg" xmlns:xlink="http://www.w3.org/1999/xlink" version="1.1" x="0" y="0" viewBox="5 5 90 90" style="enable-background:new 0 0 100 100;" xml:space="preserve" height="54.79518800000001" width="54.79518800000001" class="icon-dxe-0" data-fill-palette-color="accent" id="dxe-0"><path d="M92.5 5H7.5C6.1 5 5 6.1 5 7.5V27.5C5 28.9 6.1 30 7.5 30H40V40H30C27.8 40 26.7 42.7 28.2 44.3L48.2 64.3C49.2 65.3 50.8 65.3 51.7 64.3L71.7 44.3C73.2 42.8 72.1 40 69.9 40H60V30H92.5C93.9 30 95 28.9 95 27.5V7.5C95 6.1 93.9 5 92.5 5M90 25H57.5C56.1 25 55 26.1 55 27.5V42.5C55 43.9 56.1 45 57.5 45H64L50 59 36 45H42.5C43.9 45 45 43.9 45 42.5V27.5C45 26.1 43.9 25 42.5 25H10V10H90z" fill="#877eff" data-fill-palette-color="accent"></path><path d="M40 95H60C61.4 95 62.5 93.9 62.5 92.5V72.5C62.5 71.1 61.4 70 60 70H40C38.6 70 37.5 71.1 37.5 72.5V92.5C37.5 93.9 38.6 95 40 95M42.5 75H57.5V90H42.5z" fill="#877eff" data-fill-palette-color="accent"></path><path d="M7.5 95H27.5C28.9 95 30 93.9 30 92.5V72.5C30 71.1 28.9 70 27.5 70H7.5C6.1 70 5 71.1 5 72.5V92.5C5 93.9 6.1 95 7.5 95M10 75H25V90H10z" fill="#877eff" data-fill-palette-color="accent"></path><path d="M92.5 70H72.5C71.1 70 70 71.1 70 72.5V92.5C70 93.9 71.1 95 72.5 95H92.5C93.9 95 95 93.9 95 92.5V72.5C95 71.1 93.9 70 92.5 70M90 90H75V75H90z" fill="#877eff" data-fill-palette-color="accent"></path></svg></g><g transform="matrix(1,0,0,1,70.57178800000001,3.552713678800501e-15)"><svg width="313.845078" viewBox="1.15 -40.45 236.53 41.300000000000004" height="54.795188" data-palette-color="#ffffff"><g class="wordmark-text-0" data-fill-palette-color="primary"><path d="M16.3 0.85Q8.9 0.85 5.03-3.83 1.15-8.5 1.15-17.4L1.15-17.4Q1.15-23.15 3.25-27.25 5.35-31.35 9.03-33.45 12.7-35.55 17.25-35.55L17.25-35.55Q20.8-35.55 23.43-34.43 26.05-33.3 28.25-31.25L28.25-31.25 23.95-26.8Q22.3-28.25 20.88-28.9 19.45-29.55 17.65-29.55L17.65-29.55Q13.9-29.55 11.75-26.58 9.6-23.6 9.6-17.35L9.6-17.35Q9.6-10.65 11.2-7.9 12.8-5.15 16.35-5.15L16.35-5.15Q18.7-5.15 20.65-6.2L20.65-6.2 20.65-14.15 16.3-14.15 15.5-19.85 28.4-19.85 28.4-2.65Q22.7 0.85 16.3 0.85L16.3 0.85ZM44.95-40.45Q47-40.45 48.3-39.18 49.6-37.9 49.6-36L49.6-36Q49.6-34.05 48.3-32.8 47-31.55 44.95-31.55L44.95-31.55Q42.9-31.55 41.57-32.83 40.25-34.1 40.25-36L40.25-36Q40.25-37.9 41.57-39.18 42.9-40.45 44.95-40.45L44.95-40.45ZM49.7-26.55L49.7-5.4 56.5-5.4 56.5 0 34.3 0 34.3-5.4 41.8-5.4 41.8-21.15 34.55-21.15 34.55-26.55 49.7-26.55ZM87.4-1.55Q83.65 0.85 78.7 0.85L78.7 0.85Q73.59 0.85 71.02-1.75 68.45-4.35 68.45-9.05L68.45-9.05 68.45-21.1 62.9-21.1 62.9-26.55 68.45-26.55 68.45-32.3 76.34-33.25 76.34-26.55 84.9-26.55 84.09-21.1 76.34-21.1 76.34-9.05Q76.34-7.1 77.25-6.25 78.15-5.4 80.15-5.4L80.15-5.4Q82.65-5.4 84.8-6.6L84.8-6.6 87.4-1.55ZM118.79-23.35Q118.79-17.5 115.12-14.53 111.44-11.55 105.09-11.55L105.09-11.55 101.29-11.55 101.29 0 93.09 0 93.09-34.65 103.99-34.65Q111.19-34.65 114.99-31.83 118.79-29 118.79-23.35L118.79-23.35ZM110.39-23.35Q110.39-28.8 104.14-28.8L104.14-28.8 101.29-28.8 101.29-17.45 104.54-17.45Q107.34-17.45 108.87-18.9 110.39-20.35 110.39-23.35L110.39-23.35ZM145.84-7.65Q145.84-6.2 146.24-5.5 146.64-4.8 147.59-4.45L147.59-4.45 145.94 0.75Q143.54 0.5 141.94-0.33 140.34-1.15 139.44-2.75L139.44-2.75Q137.94-1 135.64-0.08 133.34 0.85 130.74 0.85L130.74 0.85Q126.64 0.85 124.19-1.48 121.74-3.8 121.74-7.5L121.74-7.5Q121.74-11.8 125.14-14.18 128.54-16.55 134.69-16.55L134.69-16.55 138.24-16.55 138.24-17.5Q138.24-21.6 132.99-21.6L132.99-21.6Q131.64-21.6 129.62-21.23 127.59-20.85 125.69-20.2L125.69-20.2 123.89-25.45Q126.44-26.4 129.22-26.93 131.99-27.45 134.24-27.45L134.24-27.45Q145.84-27.45 145.84-18.05L145.84-18.05 145.84-7.65ZM133.44-4.8Q134.79-4.8 136.17-5.58 137.54-6.35 138.24-7.7L138.24-7.7 138.24-12.05 136.29-12.05Q129.89-12.05 129.89-8.05L129.89-8.05Q129.89-6.5 130.81-5.65 131.74-4.8 133.44-4.8L133.44-4.8ZM173.74-27.35Q176.14-27.35 178.14-26.55L178.14-26.55 176.69-15.45 171.69-15.45 171.69-20.35Q169.49-19.95 167.79-17.95 166.09-15.95 165.14-12.9L165.14-12.9 165.14-5.3 170.39-5.3 170.39 0 153.74 0 153.74-5.3 157.24-5.3 157.24-21.3 153.74-21.3 153.74-26.55 163.29-26.55 164.69-20.6Q166.14-24 168.34-25.68 170.54-27.35 173.74-27.35L173.74-27.35ZM194.14-4.8Q196.19-4.8 197.36-5.43 198.54-6.05 198.54-7.3L198.54-7.3Q198.54-8.2 198.06-8.75 197.59-9.3 196.29-9.83 194.99-10.35 192.24-11.1L192.24-11.1Q188.24-12.15 186.14-14.03 184.04-15.9 184.04-19.2L184.04-19.2Q184.04-22.85 187.06-25.15 190.09-27.45 195.54-27.45L195.54-27.45Q201.84-27.45 206.29-24.2L206.29-24.2 203.14-19.55Q199.49-21.8 195.79-21.8L195.79-21.8Q193.84-21.8 192.91-21.3 191.99-20.8 191.99-19.75L191.99-19.75Q191.99-19.05 192.46-18.57 192.94-18.1 194.26-17.6 195.59-17.1 198.24-16.35L198.24-16.35Q201.09-15.55 202.91-14.6 204.74-13.65 205.74-12.05 206.74-10.45 206.74-7.95L206.74-7.95Q206.74-5.15 205.04-3.15 203.34-1.15 200.49-0.15 197.64 0.85 194.19 0.85L194.19 0.85Q190.49 0.85 187.49-0.2 184.49-1.25 182.39-3.15L182.39-3.15 186.34-7.6Q189.94-4.8 194.14-4.8L194.14-4.8ZM220.33-10.95Q221.08-4.9 226.73-4.9L226.73-4.9Q230.13-4.9 233.53-7.1L233.53-7.1 236.68-2.8Q234.73-1.1 232.03-0.13 229.33 0.85 226.08 0.85L226.08 0.85Q221.63 0.85 218.53-0.93 215.43-2.7 213.86-5.88 212.28-9.05 212.28-13.25L212.28-13.25Q212.28-17.25 213.81-20.48 215.33-23.7 218.26-25.58 221.18-27.45 225.23-27.45L225.23-27.45Q229.03-27.45 231.83-25.83 234.63-24.2 236.16-21.13 237.68-18.05 237.68-13.8L237.68-13.8Q237.68-12.15 237.53-10.95L237.53-10.95 220.33-10.95ZM225.23-22.15Q223.08-22.15 221.78-20.58 220.48-19 220.23-15.75L220.23-15.75 229.98-15.75Q229.88-22.15 225.23-22.15L225.23-22.15Z" fill="#ffffff" data-fill-palette-color="primary"></path></g></svg></g></svg></g></svg></g></svg></g></svg></g></svg></g><defs></defs></svg><rect width="384.416866" height="54.79518800000001" fill="none" stroke="none" visibility="hidden"></rect></g></svg></g></svg>