<?xml version="1.0" encoding="UTF-8"?>
<!--Generator: Apple Native CoreSVG 175.5-->
<!DOCTYPE svg
PUBLIC "-//W3C//DTD SVG 1.1//EN"
       "http://www.w3.org/Graphics/SVG/1.1/DTD/svg11.dtd">
<svg version="1.1" xmlns="http://www.w3.org/2000/svg" xmlns:xlink="http://www.w3.org/1999/xlink" width="298.828" height="298.975">
 <g>
  <rect height="298.975" opacity="0" width="298.828" x="0" y="0"/>
  <path d="M149.414 298.828C231.152 298.828 298.828 231.006 298.828 149.414C298.828 67.6758 231.006 0 149.268 0C67.6758 0 0 67.6758 0 149.414C0 231.006 67.8223 298.828 149.414 298.828ZM149.414 273.926C80.2734 273.926 25.0488 218.555 25.0488 149.414C25.0488 80.2734 80.127 24.9023 149.268 24.9023C218.408 24.9023 273.926 80.2734 273.926 149.414C273.926 218.555 218.555 273.926 149.414 273.926ZM122.021 206.689L205.371 157.324C211.523 153.809 211.377 145.312 205.371 141.65L122.021 92.2852C115.723 88.623 107.373 91.4062 107.373 98.584L107.373 200.391C107.373 207.422 115.137 210.791 122.021 206.689Z" fill="#877eff"/>
 </g>
</svg>
