<?xml version="1.0" encoding="UTF-8"?>
<!--Generator: Apple Native CoreSVG 175.5-->
<!DOCTYPE svg
PUBLIC "-//W3C//DTD SVG 1.1//EN"
       "http://www.w3.org/Graphics/SVG/1.1/DTD/svg11.dtd">
<svg version="1.1" xmlns="http://www.w3.org/2000/svg" xmlns:xlink="http://www.w3.org/1999/xlink" width="314.941" height="272.607">
 <g>
  <rect height="272.607" opacity="0" width="314.941" x="0" y="0"/>
  <path d="M0 261.035C0 268.066 4.6875 272.607 11.7188 272.607L303.076 272.607C309.521 272.607 314.941 267.48 314.941 260.889C314.941 254.443 309.521 249.17 303.076 249.17L27.6855 249.17C24.6094 249.17 23.584 248.145 23.584 245.068L23.584 13.4766C23.584 7.17773 18.3105 1.75781 11.8652 1.75781C5.27344 1.75781 0 7.17773 0 13.4766ZM15.3809 169.922L109.57 115.43L177.393 173.584L297.949 101.807L288.721 86.8652L178.564 152.49L111.035 94.6289L15.3809 149.854ZM107.666 135.205C122.021 135.205 133.74 123.486 133.74 109.131C133.74 94.7754 122.021 83.2031 107.666 83.2031C93.3105 83.2031 81.5918 94.7754 81.5918 109.131C81.5918 123.486 93.3105 135.205 107.666 135.205ZM176.807 188.965C191.162 188.965 202.734 177.246 202.734 162.891C202.734 148.535 191.162 136.963 176.807 136.963C162.451 136.963 150.732 148.535 150.732 162.891C150.732 177.246 162.451 188.965 176.807 188.965ZM287.256 122.314C301.611 122.314 313.33 110.596 313.33 96.2402C313.33 81.8848 301.611 70.166 287.256 70.166C272.9 70.166 261.182 81.8848 261.182 96.2402C261.182 110.596 272.9 122.314 287.256 122.314Z" fill="#877eff"/>
 </g>
</svg>
