<?xml version="1.0" encoding="UTF-8"?>
<!--Generator: Apple Native CoreSVG 175.5-->
<!DOCTYPE svg
PUBLIC "-//W3C//DTD SVG 1.1//EN"
       "http://www.w3.org/Graphics/SVG/1.1/DTD/svg11.dtd">
<svg version="1.1" xmlns="http://www.w3.org/2000/svg" xmlns:xlink="http://www.w3.org/1999/xlink" width="368.262" height="214.307">
 <g>
  <rect height="214.307" opacity="0" width="368.262" x="0" y="0"/>
  <path d="M83.2031 30.4688L283.301 30.4688C289.893 30.4688 295.166 25.3418 295.166 18.75C295.166 12.0117 289.893 6.88477 283.301 6.88477L83.2031 6.88477C76.4648 6.88477 71.3379 12.0117 71.3379 18.75C71.3379 25.3418 76.4648 30.4688 83.2031 30.4688ZM119.678 119.092L319.922 119.092C326.514 119.092 331.641 113.818 331.641 107.227C331.641 100.635 326.514 95.5078 319.922 95.5078L119.678 95.5078C113.086 95.5078 107.959 100.635 107.959 107.227C107.959 113.818 113.086 119.092 119.678 119.092ZM156.299 207.568L356.543 207.568C363.135 207.568 368.262 202.441 368.262 195.85C368.262 189.111 363.135 183.984 356.543 183.984L156.299 183.984C149.707 183.984 144.58 189.111 144.58 195.85C144.58 202.441 149.707 207.568 156.299 207.568ZM18.457 37.0605C28.7109 37.0605 36.9141 28.8574 36.9141 18.75C36.9141 8.49609 28.7109 0.292969 18.457 0.292969C8.20312 0.292969 0 8.49609 0 18.75C0 28.8574 8.20312 37.0605 18.457 37.0605ZM55.0781 125.684C65.1855 125.684 73.5352 117.48 73.5352 107.227C73.5352 96.9727 65.1855 88.7695 55.0781 88.7695C44.8242 88.7695 36.6211 96.9727 36.6211 107.227C36.6211 117.48 44.8242 125.684 55.0781 125.684ZM91.5527 214.307C101.807 214.307 110.01 205.957 110.01 195.85C110.01 185.596 101.807 177.393 91.5527 177.393C81.4453 177.393 73.0957 185.596 73.0957 195.85C73.0957 205.957 81.4453 214.307 91.5527 214.307Z" fill="#877eff"/>
 </g>
</svg>
