<?xml version="1.0" encoding="UTF-8"?>
<!--Generator: Apple Native CoreSVG 175.5-->
<!DOCTYPE svg
PUBLIC "-//W3C//DTD SVG 1.1//EN"
       "http://www.w3.org/Graphics/SVG/1.1/DTD/svg11.dtd">
<svg version="1.1" xmlns="http://www.w3.org/2000/svg" xmlns:xlink="http://www.w3.org/1999/xlink" width="345.41" height="269.678">
 <g>
  <rect height="269.678" opacity="0" width="345.41" x="0" y="0"/>
  <path d="M6.73828 105.615L340.283 105.615L340.283 82.0312L6.73828 82.0312ZM6.73828 187.793L340.283 187.793L340.283 164.209L6.73828 164.209ZM160.986 263.086L184.57 263.086L184.57 6.73828L160.986 6.73828ZM45.9961 269.678L299.414 269.678C330.176 269.678 345.41 254.59 345.41 224.414L345.41 45.4102C345.41 15.2344 330.176 0 299.414 0L45.9961 0C15.3809 0 0 15.2344 0 45.4102L0 224.414C0 254.59 15.3809 269.678 45.9961 269.678ZM46.2891 246.094C31.6406 246.094 23.584 238.33 23.584 223.096L23.584 46.7285C23.584 31.4941 31.6406 23.584 46.2891 23.584L299.121 23.584C313.623 23.584 321.826 31.4941 321.826 46.7285L321.826 223.096C321.826 238.33 313.623 246.094 299.121 246.094Z" fill="#877eff"/>
 </g>
</svg>
